<?xml version="1.0" encoding="UTF-8"?>

<svg version="1.2" baseProfile="tiny" width="210mm" height="297mm" viewBox="0 0 21000 29700" preserveAspectRatio="xMidYMid" fill-rule="evenodd" stroke-width="28.222" stroke-linejoin="round" xmlns="http://www.w3.org/2000/svg" xmlns:ooo="http://xml.openoffice.org/svg/export" xmlns:xlink="http://www.w3.org/1999/xlink" xml:space="preserve">
 <defs class="ClipPathGroup">
  <clipPath id="presentation_clip_path" clipPathUnits="userSpaceOnUse">
   <rect x="0" y="0" width="21000" height="29700"/>
  </clipPath>
 </defs>
 <defs class="TextShapeIndex">
  <g ooo:slide="id1" ooo:id-list="id3 id4 id5 id6 id7 id8 id9 id10 id11 id12 id13 id14 id15 id16 id17 id18 id19 id20 id21"/>
 </defs>
 <defs class="EmbeddedBulletChars">
  <g id="bullet-char-template(57356)" transform="scale(0.00048828125,-0.00048828125)">
   <path d="M 580,1141 L 1163,571 580,0 -4,571 580,1141 Z"/>
  </g>
  <g id="bullet-char-template(57354)" transform="scale(0.00048828125,-0.00048828125)">
   <path d="M 8,1128 L 1137,1128 1137,0 8,0 8,1128 Z"/>
  </g>
  <g id="bullet-char-template(10146)" transform="scale(0.00048828125,-0.00048828125)">
   <path d="M 174,0 L 602,739 174,1481 1456,739 174,0 Z M 1358,739 L 309,1346 659,739 1358,739 Z"/>
  </g>
  <g id="bullet-char-template(10132)" transform="scale(0.00048828125,-0.00048828125)">
   <path d="M 2015,739 L 1276,0 717,0 1260,543 174,543 174,936 1260,936 717,1481 1274,1481 2015,739 Z"/>
  </g>
  <g id="bullet-char-template(10007)" transform="scale(0.00048828125,-0.00048828125)">
   <path d="M 0,-2 C -7,14 -16,27 -25,37 L 356,567 C 262,823 215,952 215,954 215,979 228,992 255,992 264,992 276,990 289,987 310,991 331,999 354,1012 L 381,999 492,748 772,1049 836,1024 860,1049 C 881,1039 901,1025 922,1006 886,937 835,863 770,784 769,783 710,716 594,584 L 774,223 C 774,196 753,168 711,139 L 727,119 C 717,90 699,76 672,76 641,76 570,178 457,381 L 164,-76 C 142,-110 111,-127 72,-127 30,-127 9,-110 8,-76 1,-67 -2,-52 -2,-32 -2,-23 -1,-13 0,-2 Z"/>
  </g>
  <g id="bullet-char-template(10004)" transform="scale(0.00048828125,-0.00048828125)">
   <path d="M 285,-33 C 182,-33 111,30 74,156 52,228 41,333 41,471 41,549 55,616 82,672 116,743 169,778 240,778 293,778 328,747 346,684 L 369,508 C 377,444 397,411 428,410 L 1163,1116 C 1174,1127 1196,1133 1229,1133 1271,1133 1292,1118 1292,1087 L 1292,965 C 1292,929 1282,901 1262,881 L 442,47 C 390,-6 338,-33 285,-33 Z"/>
  </g>
  <g id="bullet-char-template(9679)" transform="scale(0.00048828125,-0.00048828125)">
   <path d="M 813,0 C 632,0 489,54 383,161 276,268 223,411 223,592 223,773 276,916 383,1023 489,1130 632,1184 813,1184 992,1184 1136,1130 1245,1023 1353,916 1407,772 1407,592 1407,412 1353,268 1245,161 1136,54 992,0 813,0 Z"/>
  </g>
  <g id="bullet-char-template(8226)" transform="scale(0.00048828125,-0.00048828125)">
   <path d="M 346,457 C 273,457 209,483 155,535 101,586 74,649 74,723 74,796 101,859 155,911 209,963 273,989 346,989 419,989 480,963 531,910 582,859 608,796 608,723 608,648 583,586 532,535 482,483 420,457 346,457 Z"/>
  </g>
  <g id="bullet-char-template(8211)" transform="scale(0.00048828125,-0.00048828125)">
   <path d="M -4,459 L 1135,459 1135,606 -4,606 -4,459 Z"/>
  </g>
 </defs>
 <defs class="TextEmbeddedBitmaps"/>
 <g>
  <g id="id2" class="Master_Slide">
   <g id="bg-id2" class="Background"/>
   <g id="bo-id2" class="BackgroundObjects"/>
  </g>
 </g>
 <g class="SlideGroup">
  <g>
   <g id="id1" class="Slide" clip-path="url(#presentation_clip_path)">
    <g class="Page">
     <g class="com.sun.star.drawing.ClosedBezierShape">
      <g id="id3">
       <path fill="rgb(76,81,88)" stroke="none" d="M 11666,10037 C 11722,10037 11773,10027 11819,10007 11864,9986 11903,9958 11934,9922 11966,9887 11990,9845 12008,9798 12025,9751 12034,9701 12034,9649 L 12034,9643 C 12034,9589 12025,9538 12006,9491 11988,9444 11962,9402 11928,9366 11894,9331 11855,9302 11809,9281 11763,9259 11713,9248 11659,9248 11603,9248 11551,9259 11506,9279 11460,9300 11422,9328 11390,9363 11359,9399 11334,9440 11317,9488 11299,9535 11291,9585 11291,9636 L 11291,9643 C 11291,9697 11300,9747 11318,9795 11337,9842 11363,9884 11397,9919 11430,9955 11470,9983 11516,10005 11561,10026 11611,10037 11666,10037 Z M 11659,10566 C 11518,10566 11388,10542 11270,10495 11151,10447 11048,10381 10962,10297 10875,10214 10807,10115 10759,10005 10711,9894 10687,9775 10687,9649 L 10687,9643 C 10687,9517 10711,9398 10761,9286 10810,9174 10878,9076 10965,8993 11052,8909 11155,8843 11274,8794 11394,8745 11524,8720 11666,8720 11807,8720 11937,8745 12055,8794 12173,8843 12276,8908 12363,8991 12450,9074 12517,9170 12565,9281 12613,9392 12637,9510 12637,9636 L 12637,9643 C 12637,9769 12612,9888 12564,10000 12515,10112 12447,10210 12360,10294 12273,10378 12170,10444 12050,10493 11931,10542 11800,10566 11659,10566 Z"/>
      </g>
     </g>
     <g class="com.sun.star.drawing.ClosedBezierShape">
      <g id="id4">
       <path fill="rgb(76,81,88)" stroke="none" d="M 13863,10044 C 13965,10044 14050,10007 14119,9933 14189,9859 14223,9762 14223,9643 L 14223,9636 C 14223,9519 14189,9423 14119,9349 14050,9276 13965,9239 13863,9239 13813,9239 13767,9248 13723,9268 13680,9288 13642,9315 13610,9351 13578,9387 13552,9429 13534,9477 13515,9524 13506,9578 13506,9636 L 13506,9643 C 13506,9701 13515,9755 13534,9804 13552,9853 13578,9895 13610,9931 13642,9967 13680,9995 13723,10014 13767,10034 13813,10044 13863,10044 Z M 12897,8760 L 13519,8760 13519,8994 C 13550,8957 13582,8922 13617,8890 13651,8857 13690,8829 13732,8803 13774,8779 13822,8758 13875,8743 13928,8728 13987,8720 14052,8720 14156,8720 14256,8742 14350,8784 14444,8826 14528,8887 14600,8965 14671,9043 14728,9139 14770,9252 14813,9365 14834,9492 14834,9633 L 14834,9640 C 14834,9783 14813,9912 14770,10026 14728,10140 14672,10237 14601,10316 14531,10395 14447,10456 14353,10499 14259,10542 14160,10563 14056,10563 13988,10563 13928,10556 13875,10542 13822,10528 13774,10509 13731,10486 13687,10464 13648,10435 13613,10404 13579,10372 13547,10340 13519,10308 L 13519,11045 12897,11045 12897,8760 Z"/>
      </g>
     </g>
     <g class="com.sun.star.drawing.ClosedBezierShape">
      <g id="id5">
       <path fill="rgb(76,81,88)" stroke="none" d="M 16229,9496 C 16218,9398 16185,9321 16131,9263 16077,9206 16007,9177 15922,9177 15840,9177 15772,9206 15720,9263 15668,9321 15633,9398 15616,9496 L 16229,9496 Z M 15975,10566 C 15835,10566 15708,10544 15593,10499 15478,10455 15379,10393 15295,10314 15211,10234 15146,10137 15098,10024 15052,9911 15028,9786 15028,9649 L 15028,9643 C 15028,9515 15050,9395 15094,9283 15138,9171 15199,9073 15279,8989 15358,8906 15452,8840 15561,8792 15669,8744 15789,8720 15919,8720 16071,8720 16203,8746 16315,8799 16427,8851 16519,8921 16592,9009 16665,9097 16719,9199 16755,9315 16791,9432 16809,9555 16809,9685 L 16809,9747 C 16809,9769 16808,9791 16806,9812 L 15626,9812 C 15650,9910 15695,9983 15761,10031 15827,10079 15909,10102 16007,10102 16081,10102 16149,10088 16211,10060 16273,10032 16335,9986 16398,9923 L 16740,10208 C 16656,10316 16551,10403 16426,10468 16301,10534 16151,10566 15975,10566 Z"/>
      </g>
     </g>
     <g class="com.sun.star.drawing.ClosedBezierShape">
      <g id="id6">
       <path fill="rgb(76,81,88)" stroke="none" d="M 17072,8760 L 17695,8760 17695,9007 C 17722,8970 17754,8934 17788,8900 17822,8865 17861,8834 17904,8808 17947,8782 17994,8761 18045,8745 18097,8729 18154,8720 18216,8720 18407,8720 18555,8778 18661,8893 18767,9008 18820,9167 18820,9369 L 18820,10524 18197,10524 18197,9568 C 18197,9470 18174,9396 18129,9346 18084,9296 18025,9271 17952,9271 17877,9271 17815,9296 17767,9346 17719,9396 17695,9470 17695,9568 L 17695,10524 17072,10524 17072,8760 Z"/>
      </g>
     </g>
     <g class="com.sun.star.drawing.ClosedBezierShape">
      <g id="id7">
       <path fill="rgb(76,81,88)" stroke="none" d="M 11459,13334 C 11309,13334 11164,13312 11022,13270 10881,13228 10749,13162 10625,13073 L 10856,12698 C 10958,12765 11062,12816 11168,12850 11273,12883 11371,12900 11462,12900 11567,12900 11619,12869 11619,12806 L 11619,12799 C 11619,12764 11595,12737 11547,12717 11499,12698 11429,12675 11335,12649 11248,12627 11167,12602 11091,12572 11015,12543 10949,12507 10892,12465 10836,12423 10791,12371 10758,12310 10726,12249 10710,12174 10710,12085 L 10710,12079 C 10710,11985 10727,11901 10763,11828 10799,11756 10849,11695 10912,11646 10975,11597 11049,11559 11135,11533 11221,11507 11315,11494 11417,11494 11547,11494 11676,11512 11802,11548 11928,11584 12043,11634 12145,11700 L 11933,12092 C 11842,12042 11749,12002 11656,11973 11561,11942 11480,11928 11410,11928 11363,11928 11327,11936 11303,11953 11279,11969 11267,11990 11267,12013 L 11267,12020 C 11267,12055 11291,12082 11340,12103 11389,12124 11460,12148 11554,12176 11641,12200 11723,12227 11799,12256 11875,12286 11942,12322 11998,12364 12055,12406 12099,12458 12132,12519 12164,12580 12181,12652 12181,12737 L 12181,12744 C 12181,12841 12163,12927 12128,12999 12094,13072 12045,13134 11982,13184 11919,13234 11843,13271 11754,13296 11664,13321 11566,13334 11459,13334 Z"/>
      </g>
     </g>
     <g class="com.sun.star.drawing.ClosedBezierShape">
      <g id="id8">
       <path fill="rgb(76,81,88)" stroke="none" d="M 13341,12809 C 13397,12809 13449,12799 13494,12778 13540,12758 13578,12730 13610,12694 13641,12658 13666,12617 13683,12570 13701,12522 13709,12473 13709,12421 L 13709,12414 C 13709,12360 13700,12310 13682,12262 13663,12215 13637,12174 13603,12138 13570,12102 13530,12074 13484,12052 13439,12031 13389,12020 13334,12020 13278,12020 13227,12030 13181,12051 13136,12071 13097,12099 13065,12135 13034,12170 13010,12212 12992,12259 12975,12307 12966,12356 12966,12408 L 12966,12414 C 12966,12468 12975,12519 12994,12566 13012,12614 13038,12655 13072,12691 13106,12726 13145,12755 13191,12776 13237,12798 13287,12809 13341,12809 Z M 13334,13337 C 13193,13337 13063,13313 12945,13265 12826,13217 12724,13152 12636,13068 12549,12984 12482,12887 12434,12776 12386,12665 12362,12547 12362,12421 L 12362,12414 C 12362,12288 12387,12169 12435,12057 12484,11945 12552,11847 12639,11763 12727,11679 12830,11613 12950,11564 13069,11515 13200,11491 13341,11491 13482,11491 13612,11515 13730,11564 13849,11613 13951,11679 14038,11762 14125,11844 14193,11941 14241,12053 14288,12163 14312,12282 14312,12408 L 14312,12414 C 14312,12540 14288,12659 14239,12771 14190,12883 14122,12981 14035,13065 13948,13148 13845,13215 13726,13263 13606,13312 13476,13337 13334,13337 Z"/>
      </g>
     </g>
     <g class="com.sun.star.drawing.ClosedBezierShape">
      <g id="id9">
       <path fill="rgb(76,81,88)" stroke="none" d="M 15163,13334 C 14973,13334 14824,13276 14718,13161 14612,13046 14559,12887 14559,12685 L 14559,11530 15183,11530 15183,12486 C 15183,12584 15205,12658 15250,12708 15295,12758 15355,12783 15430,12783 15503,12783 15564,12758 15612,12708 15660,12658 15684,12584 15684,12486 L 15684,11530 16307,11530 16307,13294 15684,13294 15684,13053 C 15629,13127 15559,13192 15475,13249 15391,13305 15287,13334 15163,13334 Z"/>
      </g>
     </g>
     <g class="com.sun.star.drawing.ClosedBezierShape">
      <g id="id10">
       <path fill="rgb(76,81,88)" stroke="none" d="M 17343,13330 C 17155,13330 17009,13286 16904,13197 16799,13108 16746,12958 16746,12747 L 16746,12029 16537,12029 16537,11530 16746,11530 16746,11084 17370,11084 17370,11530 17780,11530 17780,12029 17370,12029 17370,12626 C 17370,12689 17384,12734 17412,12762 17440,12789 17483,12802 17539,12802 17580,12802 17621,12797 17660,12786 17699,12775 17737,12761 17774,12744 L 17774,13229 C 17717,13260 17653,13284 17581,13303 17510,13321 17430,13330 17343,13330 Z"/>
      </g>
     </g>
     <g class="com.sun.star.drawing.ClosedBezierShape">
      <g id="id11">
       <path fill="rgb(76,81,88)" stroke="none" d="M 18043,10914 L 18667,10914 18667,11771 C 18723,11697 18792,11632 18876,11576 18960,11519 19064,11491 19188,11491 19378,11491 19526,11549 19632,11664 19738,11779 19791,11937 19791,12140 L 19791,13294 19169,13294 19169,12338 C 19169,12241 19146,12167 19101,12117 19056,12067 18997,12042 18924,12042 18849,12042 18787,12067 18739,12117 18691,12167 18667,12241 18667,12338 L 18667,13294 18043,13294 18043,10914 Z"/>
      </g>
     </g>
     <g class="com.sun.star.drawing.ClosedBezierShape">
      <g id="id12">
       <path fill="rgb(76,81,88)" stroke="none" d="M 11610,16107 C 11478,16107 11355,16083 11242,16034 11129,15985 11031,15919 10949,15837 10868,15754 10804,15657 10757,15544 10710,15432 10687,15314 10687,15190 L 10687,15184 C 10687,15060 10710,14942 10757,14830 10804,14718 10868,14621 10951,14537 11033,14453 11134,14387 11250,14338 11366,14289 11494,14265 11633,14265 11816,14265 11968,14301 12089,14372 12211,14444 12310,14540 12386,14659 L 11965,14972 C 11922,14913 11875,14868 11825,14835 11775,14803 11712,14786 11636,14786 11586,14786 11540,14797 11498,14817 11455,14838 11419,14866 11389,14902 11358,14938 11334,14979 11317,15026 11299,15073 11291,15123 11291,15177 L 11291,15184 C 11291,15240 11299,15293 11317,15342 11334,15391 11358,15433 11389,15469 11419,15505 11456,15533 11499,15554 11543,15575 11591,15585 11643,15585 11717,15585 11779,15569 11830,15536 11881,15503 11932,15459 11982,15402 L 12396,15703 C 12313,15825 12210,15923 12086,15997 11962,16070 11804,16107 11610,16107 Z"/>
      </g>
     </g>
     <g class="com.sun.star.drawing.ClosedBezierShape">
      <g id="id13">
       <path fill="rgb(76,81,88)" stroke="none" d="M 13520,15578 C 13577,15578 13628,15568 13673,15548 13719,15527 13758,15499 13789,15464 13821,15428 13845,15387 13862,15339 13880,15292 13888,15242 13888,15190 L 13888,15184 C 13888,15130 13879,15079 13861,15032 13842,14985 13816,14943 13783,14908 13749,14872 13709,14843 13664,14822 13618,14800 13568,14790 13514,14790 13457,14790 13406,14800 13360,14820 13315,14841 13276,14869 13245,14904 13213,14940 13189,14981 13171,15029 13154,15076 13145,15126 13145,15177 L 13145,15184 C 13145,15238 13155,15288 13173,15336 13191,15383 13218,15425 13251,15460 13285,15496 13325,15524 13370,15546 13416,15568 13466,15578 13520,15578 Z M 13514,16107 C 13372,16107 13243,16083 13124,16036 13006,15988 12903,15922 12816,15838 12729,15755 12661,15657 12613,15546 12565,15435 12541,15317 12541,15190 L 12541,15184 C 12541,15058 12566,14939 12615,14827 12664,14715 12732,14617 12819,14534 12906,14450 13010,14384 13129,14335 13249,14286 13379,14261 13520,14261 13661,14261 13791,14286 13910,14335 14028,14384 14131,14449 14218,14532 14305,14615 14372,14711 14420,14822 14468,14933 14492,15051 14492,15177 L 14492,15184 C 14492,15310 14467,15429 14418,15541 14369,15653 14301,15752 14214,15835 14127,15919 14024,15985 13905,16034 13785,16083 13655,16107 13514,16107 Z"/>
      </g>
     </g>
     <g class="com.sun.star.drawing.ClosedBezierShape">
      <g id="id14">
       <path fill="rgb(76,81,88)" stroke="none" d="M 15652,15585 C 15702,15585 15749,15575 15792,15556 15835,15536 15873,15508 15906,15472 15938,15437 15963,15394 15982,15345 16000,15296 16009,15243 16009,15184 L 16009,15177 C 16009,15119 16000,15066 15982,15018 15963,14970 15938,14928 15906,14892 15873,14856 15835,14829 15792,14809 15749,14790 15702,14780 15652,14780 15603,14780 15556,14790 15513,14809 15470,14829 15432,14856 15399,14891 15367,14925 15341,14967 15321,15016 15302,15065 15292,15119 15292,15177 L 15292,15184 C 15292,15243 15302,15296 15321,15345 15341,15394 15367,15437 15399,15472 15432,15508 15470,15536 15513,15556 15556,15575 15603,15585 15652,15585 Z M 15465,16104 C 15361,16104 15261,16083 15167,16041 15072,15998 14990,15938 14919,15860 14848,15781 14792,15685 14750,15572 14707,15459 14686,15332 14686,15190 L 14686,15184 C 14686,15041 14707,14912 14748,14798 14789,14684 14845,14587 14917,14508 14988,14428 15071,14367 15164,14325 15257,14283 15356,14261 15460,14261 15592,14261 15700,14287 15785,14338 15870,14389 15941,14448 16000,14516 L 16000,13685 16623,13685 16623,16065 16000,16065 16003,15830 C 15942,15904 15870,15968 15788,16023 15705,16077 15598,16104 15465,16104 Z"/>
      </g>
     </g>
     <g class="com.sun.star.drawing.ClosedBezierShape">
      <g id="id15">
       <path fill="rgb(76,81,88)" stroke="none" d="M 18083,15037 C 18072,14939 18040,14862 17986,14804 17931,14747 17862,14718 17777,14718 17694,14718 17627,14747 17575,14804 17523,14862 17488,14939 17471,15037 L 18083,15037 Z M 17829,16107 C 17690,16107 17563,16085 17448,16041 17333,15996 17233,15934 17150,15855 17066,15775 17001,15679 16954,15565 16907,15452 16883,15327 16883,15190 L 16883,15184 C 16883,15056 16906,14936 16949,14824 16993,14712 17054,14614 17133,14530 17213,14447 17306,14381 17415,14333 17524,14285 17643,14261 17774,14261 17926,14261 18058,14288 18170,14340 18282,14392 18374,14462 18447,14550 18520,14638 18574,14740 18610,14856 18646,14973 18664,15096 18664,15226 L 18664,15288 C 18664,15310 18662,15332 18660,15353 L 17480,15353 C 17504,15451 17549,15524 17616,15572 17682,15620 17764,15643 17862,15643 17936,15643 18004,15629 18065,15601 18127,15573 18190,15527 18253,15464 L 18595,15749 C 18510,15858 18405,15944 18281,16010 18156,16075 18005,16107 17829,16107 Z"/>
      </g>
     </g>
     <g class="com.sun.star.drawing.ClosedBezierShape">
      <g id="id16">
       <path fill="rgb(76,114,53)" stroke="none" d="M 7202,10031 C 7203,10030 6889,9767 6652,9639 6424,9515 6212,9442 6045,9397 L 5516,11302 C 5663,11339 5804,11410 5927,11515 6105,11705 6356,11823 6634,11823 7172,11823 7610,11381 7610,10834 7610,10503 7449,10210 7202,10031 Z"/>
      </g>
     </g>
     <g class="com.sun.star.drawing.ClosedBezierShape">
      <g id="id17">
       <path fill="rgb(199,225,170)" stroke="none" d="M 7202,14547 C 7203,14547 6890,14810 6652,14939 6423,15063 6212,15137 6045,15181 L 5516,13276 C 5663,13239 5804,13168 5927,13062 6105,12873 6356,12755 6634,12755 7172,12755 7610,13197 7610,13744 7610,14075 7449,14368 7202,14547 Z"/>
      </g>
     </g>
     <g class="com.sun.star.drawing.ClosedBezierShape">
      <g id="id18">
       <path fill="rgb(130,195,68)" stroke="none" d="M 3276,10112 C 3235,10151 3196,10191 3157,10233 2066,11409 2083,13233 3193,14388 3220,14417 3248,14444 3276,14470 L 4607,13025 4591,13009 C 4211,12614 4206,11991 4578,11589 L 4607,11559 3276,10112 Z"/>
      </g>
     </g>
     <g class="com.sun.star.drawing.ClosedBezierShape">
      <g id="id19">
       <path fill="rgb(102,157,65)" stroke="none" d="M 6072,9405 C 5099,9138 4028,9386 3259,10128 L 4591,11574 C 4848,11318 5210,11227 5542,11310 L 6072,9405 Z"/>
      </g>
     </g>
     <g class="com.sun.star.drawing.ClosedBezierShape">
      <g id="id20">
       <path fill="rgb(151,203,97)" stroke="none" d="M 6072,15174 C 5099,15441 4028,15193 3259,14451 L 4591,13004 C 4848,13262 5210,13351 5542,13268 L 6072,15174 Z"/>
      </g>
     </g>
     <g class="com.sun.star.drawing.ClosedBezierShape">
      <g id="id21">
       <path fill="rgb(130,195,68)" stroke="none" d="M 8720,12380 C 8746,12543 8862,12803 8862,12803 L 8980,12983 C 8980,12983 9041,13108 9027,13173 9013,13237 8907,13315 8907,13315 L 8703,13454 C 8703,13454 8475,13639 8377,13785 8344,13834 8248,13966 8248,13966 7536,15203 6070,15895 4586,15575 3080,15250 2026,13985 1917,12540 L 1912,12482 1877,12261 C 1851,12098 1735,11837 1735,11837 L 1617,11658 C 1617,11658 1556,11532 1570,11468 1584,11403 1690,11324 1690,11324 L 1894,11188 C 1894,11188 2122,11003 2220,10857 2253,10808 2331,10669 2331,10669 2893,9665 3949,9011 5115,8952 L 5338,8917 C 5503,8891 5765,8777 5765,8777 L 5947,8660 C 5947,8660 6074,8600 6139,8613 6204,8627 6283,8732 6283,8732 L 6423,8934 C 6423,8934 6609,9160 6757,9256 6806,9289 6912,9356 6912,9356 7938,9906 8612,10948 8685,12099 8685,12099 8708,12309 8720,12380 Z M 7057,8688 C 6927,8603 6821,8503 6749,8405 6737,8388 6726,8371 6715,8354 L 6713,8359 6710,8355 6708,8354 6715,8354 C 6726,8371 6737,8388 6749,8405 L 6446,7946 C 6424,7889 6375,7843 6309,7830 6244,7815 6117,7876 6117,7876 L 5659,8172 C 5558,8223 5432,8264 5292,8285 L 5266,8289 C 3729,8296 2327,9171 1656,10528 L 1657,10528 1614,10604 C 1536,10713 1308,10898 1308,10898 1325,10887 896,11164 896,11164 837,11185 792,11235 778,11299 763,11364 825,11490 825,11490 L 1123,11942 C 1176,12042 1216,12167 1238,12306 L 1242,12332 1243,12399 1245,12399 C 1288,13987 2287,15423 3795,16021 L 4211,16666 C 4211,16666 4301,16773 4367,16788 4432,16801 4549,16739 4549,16739 L 5213,16311 C 6782,16351 8233,15483 8929,14111 L 8949,14085 8951,14081 C 9038,13953 9139,13848 9237,13777 9254,13765 9272,13754 9289,13744 L 9284,13741 9288,13738 9289,13736 9289,13744 C 9272,13754 9254,13765 9237,13777 L 9701,13478 C 9760,13456 9805,13405 9819,13340 9834,13276 9772,13151 9772,13151 L 9474,12698 C 9429,12611 9392,12506 9368,12390 L 9356,12241 9359,12241 C 9334,10729 8439,9348 7061,8691 L 7057,8688 Z"/>
      </g>
     </g>
    </g>
   </g>
  </g>
 </g>
</svg>